<?xml version="1.0" encoding="UTF-8"?>
<svg id="Ebene_1" data-name="Ebene 1" xmlns="http://www.w3.org/2000/svg" viewBox="0 0 24 24">
  <path d="M12,7.45c-2.51,0-4.55,2.04-4.55,4.55s2.04,4.55,4.55,4.55,4.55-2.04,4.55-4.55-2.04-4.55-4.55-4.55ZM12,14.73c-1.5,0-2.73-1.22-2.73-2.73s1.22-2.73,2.73-2.73,2.73,1.22,2.73,2.73-1.22,2.73-2.73,2.73Z"/>
  <path d="M12,5.64c.5,0,.91-.41.91-.91v-1.82c0-.5-.41-.91-.91-.91s-.91.41-.91.91v1.82c0,.5.41.91.91.91Z"/>
  <path d="M12,18.37c-.5,0-.91.41-.91.91v1.82c0,.5.41.91.91.91s.91-.41.91-.91v-1.82c0-.5-.41-.91-.91-.91Z"/>
  <path d="M6.21,7.5c.18.18.41.27.64.27s.47-.09.64-.27c.36-.36.36-.93,0-1.29l-1.28-1.28c-.35-.35-.93-.35-1.28,0-.36.36-.36.93,0,1.29l1.28,1.28Z"/>
  <path d="M17.79,16.5c-.35-.36-.93-.36-1.28,0-.36.35-.36.93,0,1.28l1.28,1.28c.18.18.41.27.64.27s.47-.09.64-.27c.36-.35.36-.93,0-1.28l-1.28-1.28Z"/>
  <path d="M5.63,12c0-.5-.41-.91-.91-.91h-1.82c-.5,0-.91.41-.91.91s.41.91.91.91h1.82c.5,0,.91-.41.91-.91Z"/>
  <path d="M21.09,11.09h-1.82c-.5,0-.91.41-.91.91s.41.91.91.91h1.82c.5,0,.91-.41.91-.91s-.41-.91-.91-.91Z"/>
  <path d="M6.21,16.5l-1.28,1.28c-.36.35-.36.93,0,1.28.18.18.41.27.64.27s.47-.09.64-.27l1.28-1.28c.36-.35.36-.93,0-1.28-.35-.36-.93-.36-1.28,0Z"/>
  <path d="M17.15,7.76c.23,0,.47-.09.64-.27l1.28-1.28c.36-.36.36-.93,0-1.29-.35-.35-.93-.35-1.28,0l-1.28,1.28c-.36.36-.36.93,0,1.29.18.18.41.27.64.27Z"/>
</svg>