<?xml version="1.0" encoding="UTF-8"?>
<svg id="Ebene_1" data-name="Ebene 1" xmlns="http://www.w3.org/2000/svg" viewBox="0 0 24 24">
  <defs>
    <style>
      .cls-1 {
        fill: none;
        stroke: #000;
        stroke-linecap: round;
        stroke-linejoin: round;
        stroke-width: 2px;
      }
    </style>
  </defs>
  <path class="cls-1" d="M12,2.48c-1.26,1.26-1.97,2.98-1.97,4.76s.71,3.5,1.97,4.76,2.98,1.97,4.76,1.97,3.5-.71,4.76-1.97c0,1.88-.56,3.72-1.6,5.29-1.05,1.57-2.53,2.79-4.27,3.51-1.74.72-3.65.91-5.5.54-1.85-.37-3.54-1.27-4.88-2.61-1.33-1.33-2.24-3.03-2.61-4.88-.37-1.85-.18-3.76.54-5.5.72-1.74,1.94-3.23,3.51-4.27,1.57-1.05,3.41-1.6,5.29-1.6Z"/>
</svg>