<svg width="132" height="40" viewBox="0 0 132 40" fill="none" xmlns="http://www.w3.org/2000/svg">
<path d="M23.498 2.53334L35.4971 4.62513C36.4015 4.77944 37.0618 5.56437 37.0605 6.48158V33.4132C37.062 34.3303 36.4016 35.1152 35.4971 35.2697L23.498 37.3634C22.95 37.4521 22.3909 37.2963 21.9658 36.9396C21.5408 36.5813 21.2938 36.0561 21.2891 35.5001V4.39466C21.2937 3.83858 21.5408 3.31348 21.9658 2.95521C22.3909 2.59699 22.95 2.44308 23.498 2.53334Z" fill="#53613D"/>
<path d="M10.2793 33.6564H20.0459V34.9025H10.2793C9.59273 34.8994 9.03498 34.3431 9.0332 33.6564V24.9142H10.2793V33.6564Z" fill="#53613D"/>
<path fill-rule="evenodd" clip-rule="evenodd" d="M55.0557 16.8663C55.9077 16.8663 56.6764 17.0762 57.3604 17.4962C58.0562 17.9162 58.6021 18.5162 58.998 19.296C59.406 20.0639 59.6103 20.9578 59.6104 21.9777C59.6104 22.9977 59.406 23.9044 58.998 24.6964C58.6021 25.4761 58.0561 26.0819 57.3604 26.5138C56.6764 26.9458 55.9077 27.1622 55.0557 27.1622C54.3239 27.1622 53.6762 27.0119 53.1123 26.712C52.5603 26.4121 52.1097 26.0342 51.7617 25.5783V31.7521H49.2422V17.0285H51.7617V18.4679C52.0857 18.012 52.5298 17.6341 53.0938 17.3341C53.6697 17.0222 54.3238 16.8664 55.0557 16.8663ZM54.3896 19.0802C53.9338 19.0803 53.5016 19.1997 53.0938 19.4396C52.6977 19.6676 52.3741 20.0044 52.1221 20.4484C51.8822 20.8923 51.7618 21.414 51.7617 22.0138C51.7617 22.6138 51.8821 23.1362 52.1221 23.5802C52.374 24.024 52.698 24.3656 53.0938 24.6056C53.5017 24.8336 53.9338 24.9483 54.3896 24.9484C54.8575 24.9484 55.2896 24.8279 55.6855 24.588C56.0935 24.348 56.4182 24.0057 56.6582 23.5617C56.91 23.1177 57.0361 22.5895 57.0361 21.9777C57.0361 21.3778 56.9102 20.8617 56.6582 20.4298C56.4182 19.9859 56.0935 19.65 55.6855 19.422C55.2896 19.1941 54.8575 19.0802 54.3896 19.0802Z" fill="#53613D"/>
<path fill-rule="evenodd" clip-rule="evenodd" d="M65.3477 16.8663C66.0913 16.8664 66.7392 17.0158 67.291 17.3156C67.855 17.6156 68.3056 17.9943 68.6416 18.4503V17.0285H71.1797V27.0001H68.6416V25.5421C68.3176 26.0101 67.867 26.4 67.291 26.712C66.7271 27.012 66.073 27.1622 65.3291 27.1622C64.4892 27.1622 63.7214 26.9458 63.0254 26.5138C62.3415 26.0819 61.7957 25.4762 61.3877 24.6964C60.9917 23.9044 60.793 22.9977 60.793 21.9777C60.793 20.9698 60.9917 20.0759 61.3877 19.296C61.7957 18.5161 62.3415 17.9162 63.0254 17.4962C63.7214 17.0762 64.4957 16.8663 65.3477 16.8663ZM65.9951 19.0802C65.5272 19.0802 65.0952 19.194 64.6992 19.422C64.3033 19.65 63.9795 19.986 63.7275 20.4298C63.4876 20.8617 63.3672 21.3778 63.3672 21.9777C63.3672 22.5776 63.4876 23.1057 63.7275 23.5617C63.9795 24.0057 64.3032 24.348 64.6992 24.588C65.1072 24.828 65.5392 24.9484 65.9951 24.9484C66.4631 24.9484 66.9016 24.8336 67.3096 24.6056C67.7174 24.3656 68.0413 24.0296 68.2812 23.5978C68.5212 23.1538 68.6416 22.6257 68.6416 22.0138C68.6416 21.402 68.5211 20.8803 68.2812 20.4484C68.0413 20.0044 67.7175 19.6676 67.3096 19.4396C66.9016 19.1996 66.4631 19.0802 65.9951 19.0802Z" fill="#53613D"/>
<path d="M77.2764 16.8663C78.4642 16.8663 79.4122 17.1659 80.1201 17.7658C80.8281 18.3538 81.218 19.1523 81.29 20.1603H78.8779C78.8419 19.7643 78.674 19.4518 78.374 19.2238C78.0861 18.9839 77.6959 18.8644 77.2041 18.8644C76.7482 18.8644 76.3945 18.9484 76.1426 19.1163C75.9026 19.2843 75.7822 19.5185 75.7822 19.8185C75.7824 20.1542 75.9504 20.412 76.2861 20.5919C76.6221 20.7599 77.1445 20.9344 77.8525 21.1144C78.5724 21.2944 79.1668 21.48 79.6348 21.672C80.1026 21.864 80.5049 22.1645 80.8408 22.5724C81.1886 22.9683 81.3679 23.4966 81.3799 24.1564C81.3798 24.7322 81.2185 25.2483 80.8945 25.7042C80.5825 26.1602 80.1263 26.5203 79.5264 26.7843C78.9384 27.0363 78.248 27.1622 77.4561 27.1622C76.6402 27.1622 75.9086 27.0175 75.2607 26.7296C74.6127 26.4296 74.0959 26.0276 73.7119 25.5236C73.3402 25.0197 73.1366 24.4615 73.1006 23.8497H75.6387C75.6867 24.2337 75.8724 24.5519 76.1963 24.8038C76.5323 25.0558 76.9465 25.1818 77.4385 25.1818C77.9184 25.1818 78.2907 25.0857 78.5547 24.8937C78.8303 24.7018 78.9686 24.4561 78.9688 24.1564C78.9688 23.8324 78.7999 23.5917 78.4639 23.4357C78.1398 23.2678 77.618 23.0875 76.8984 22.8956C76.1545 22.7157 75.5425 22.53 75.0625 22.338C74.5945 22.146 74.1859 21.8522 73.8379 21.4562C73.502 21.0602 73.334 20.5256 73.334 19.8536C73.3341 19.3018 73.4908 18.7978 73.8027 18.3419C74.1267 17.8861 74.5822 17.5258 75.1699 17.2619C75.7699 16.9979 76.4724 16.8663 77.2764 16.8663Z" fill="#53613D"/>
<path d="M87.085 16.8663C88.2728 16.8663 89.2207 17.1659 89.9287 17.7658C90.6367 18.3538 91.0266 19.1523 91.0986 20.1603H88.6865C88.6505 19.7643 88.4826 19.4518 88.1826 19.2238C87.8946 18.9839 87.5045 18.8644 87.0127 18.8644C86.5568 18.8644 86.2031 18.9484 85.9512 19.1163C85.7112 19.2843 85.5908 19.5185 85.5908 19.8185C85.591 20.1542 85.759 20.412 86.0947 20.5919C86.4307 20.7599 86.9531 20.9344 87.6611 21.1144C88.381 21.2944 88.9754 21.48 89.4434 21.672C89.9112 21.864 90.3135 22.1645 90.6494 22.5724C90.9972 22.9683 91.1765 23.4966 91.1885 24.1564C91.1884 24.7322 91.0271 25.2483 90.7031 25.7042C90.3911 26.1602 89.9349 26.5203 89.335 26.7843C88.747 27.0363 88.0566 27.1622 87.2646 27.1622C86.4488 27.1622 85.7172 27.0175 85.0693 26.7296C84.4213 26.4296 83.9045 26.0276 83.5205 25.5236C83.1487 25.0197 82.9452 24.4615 82.9092 23.8497H85.4473C85.4953 24.2337 85.681 24.5519 86.0049 24.8038C86.3409 25.0558 86.7551 25.1818 87.2471 25.1818C87.727 25.1818 88.0993 25.0857 88.3633 24.8937C88.6389 24.7018 88.7772 24.4561 88.7773 24.1564C88.7773 23.8324 88.6085 23.5917 88.2725 23.4357C87.9484 23.2678 87.4266 23.0875 86.707 22.8956C85.9631 22.7157 85.3511 22.53 84.8711 22.338C84.4031 22.146 83.9945 21.8522 83.6465 21.4562C83.3106 21.0602 83.1426 20.5256 83.1426 19.8536C83.1427 19.3018 83.2994 18.7978 83.6113 18.3419C83.9353 17.8861 84.3908 17.5258 84.9785 17.2619C85.5785 16.9979 86.281 16.8663 87.085 16.8663Z" fill="#53613D"/>
<path fill-rule="evenodd" clip-rule="evenodd" d="M97.1641 16.8663C97.9077 16.8664 98.5556 17.0158 99.1074 17.3156C99.6714 17.6156 100.122 17.9943 100.458 18.4503V17.0285H102.996V27.0001H100.458V25.5421C100.134 26.0101 99.6834 26.4 99.1074 26.712C98.5435 27.012 97.8894 27.1622 97.1455 27.1622C96.3056 27.1622 95.5378 26.9458 94.8418 26.5138C94.1579 26.0819 93.6121 25.4762 93.2041 24.6964C92.8081 23.9044 92.6094 22.9977 92.6094 21.9777C92.6094 20.9698 92.8082 20.0759 93.2041 19.296C93.6121 18.5161 94.1579 17.9162 94.8418 17.4962C95.5378 17.0762 96.3121 16.8663 97.1641 16.8663ZM97.8115 19.0802C97.3436 19.0802 96.9116 19.194 96.5156 19.422C96.1197 19.65 95.7959 19.986 95.5439 20.4298C95.304 20.8617 95.1836 21.3778 95.1836 21.9777C95.1836 22.5776 95.304 23.1057 95.5439 23.5617C95.7959 24.0057 96.1196 24.348 96.5156 24.588C96.9236 24.828 97.3556 24.9484 97.8115 24.9484C98.2795 24.9484 98.718 24.8336 99.126 24.6056C99.5338 24.3656 99.8577 24.0296 100.098 23.5978C100.338 23.1538 100.458 22.6257 100.458 22.0138C100.458 21.402 100.338 20.8803 100.098 20.4484C99.8577 20.0044 99.5339 19.6676 99.126 19.4396C98.718 19.1996 98.2795 19.0802 97.8115 19.0802Z" fill="#53613D"/>
<path fill-rule="evenodd" clip-rule="evenodd" d="M107.977 18.4865C108.301 18.0065 108.745 17.6156 109.309 17.3156C109.885 17.0156 110.539 16.8664 111.271 16.8663C112.123 16.8663 112.891 17.0762 113.575 17.4962C114.271 17.9162 114.817 18.5162 115.213 19.296C115.621 20.0639 115.825 20.9578 115.825 21.9777C115.825 22.9977 115.621 23.9044 115.213 24.6964C114.817 25.4761 114.271 26.0819 113.575 26.5138C112.891 26.9458 112.123 27.1622 111.271 27.1622C110.527 27.1622 109.873 27.0176 109.309 26.7296C108.757 26.4297 108.312 26.0461 107.977 25.5783V27.0001H105.457V13.6798H107.977V18.4865ZM110.604 19.0802C110.149 19.0803 109.716 19.1997 109.309 19.4396C108.913 19.6676 108.589 20.0044 108.337 20.4484C108.097 20.8923 107.977 21.414 107.977 22.0138C107.977 22.6138 108.097 23.1362 108.337 23.5802C108.589 24.024 108.913 24.3656 109.309 24.6056C109.717 24.8336 110.149 24.9483 110.604 24.9484C111.072 24.9484 111.504 24.8279 111.9 24.588C112.308 24.348 112.633 24.0057 112.873 23.5617C113.125 23.1177 113.251 22.5895 113.251 21.9777C113.251 21.3778 113.125 20.8617 112.873 20.4298C112.633 19.9858 112.308 19.65 111.9 19.422C111.504 19.1941 111.072 19.0802 110.604 19.0802Z" fill="#53613D"/>
<path fill-rule="evenodd" clip-rule="evenodd" d="M127.021 16.8663C127.969 16.8663 128.816 17.0698 129.56 17.4777C130.315 17.8856 130.898 18.4679 131.306 19.2238C131.726 19.9677 131.936 20.826 131.936 21.798C131.936 22.1578 131.912 22.4818 131.864 22.7697H124.574C124.634 23.4897 124.886 24.054 125.33 24.462C125.774 24.8699 126.32 25.0743 126.968 25.0744C127.904 25.0744 128.57 24.6722 128.966 23.8683H131.684C131.396 24.8282 130.843 25.6203 130.027 26.2443C129.211 26.8561 128.209 27.1622 127.021 27.1622C126.062 27.1622 125.198 26.9523 124.43 26.5324C123.674 26.1004 123.079 25.494 122.647 24.714C122.228 23.934 122.018 23.0337 122.018 22.0138C122.018 20.982 122.228 20.0759 122.647 19.296C123.067 18.516 123.656 17.9162 124.412 17.4962C125.168 17.0763 126.038 16.8664 127.021 16.8663ZM126.95 18.9357C126.326 18.9357 125.798 19.128 125.366 19.5119C124.946 19.8839 124.688 20.4063 124.592 21.0783H129.326C129.314 20.4304 129.08 19.9144 128.624 19.5304C128.168 19.1345 127.61 18.9358 126.95 18.9357Z" fill="#53613D"/>
<path d="M120.176 27.0001H117.656V13.6798H120.176V27.0001Z" fill="#53613D"/>
<path d="M11.3291 15.6788C11.5611 15.5839 11.8259 15.6347 12.0049 15.8107L15.7041 19.506C15.947 19.7506 15.947 20.1446 15.7041 20.3908L12.0049 24.0851C11.8259 24.2595 11.5595 24.3128 11.3291 24.2179C11.0972 24.1229 10.9442 23.8987 10.9395 23.6495V22.422H3.42773C3.08366 22.4205 2.80635 22.1416 2.80469 21.799V18.0978C2.80624 17.7535 3.0836 17.4747 3.42773 17.4747H10.9395V16.2472C10.9441 15.9964 11.0971 15.7723 11.3291 15.6788Z" fill="#53613D"/>
<path d="M20.04 6.24037H10.2793V14.9826H9.0332V6.24037C9.03485 5.55198 9.59265 4.9959 10.2793 4.99427H20.04V6.24037Z" fill="#53613D"/>
</svg>
